<?xml version="1.0" encoding="UTF-8" standalone="no"?>
<!-- Created with Inkscape (http://www.inkscape.org/) -->

<svg
   width="474.70779mm"
   height="614.8634mm"
   viewBox="0 0 474.70779 614.8634"
   version="1.1"
   id="svg1"
   xml:space="preserve"
   xmlns="http://www.w3.org/2000/svg"
   xmlns:svg="http://www.w3.org/2000/svg"><defs
     id="defs1" /><g
     id="layer2"
     transform="translate(92.914053,155.03812)"><path
       style="display:inline;fill:#c28d61;fill-opacity:1;stroke-width:0.641821"
       d="m 312.3268,227.0395 c -0.46653,-4.23348 -1.04041,-10.08594 -1.27529,-13.00543 -0.23483,-2.9195 -1.31223,-7.78627 -1.69158,-10.85942 -0.70452,-5.70694 -2.56699,-35.08347 -3.3066,-51.16728 -0.65899,-14.32983 0.9661,-15.80764 7.93357,-15.80764 8.48296,0 16.49808,6.13033 19.98379,15.59827 1.90337,5.17014 2.15351,26.53067 0.25712,35.33214 -1.85042,8.58761 -5.22311,19.28541 -9.13807,28.16619 -3.13653,7.11496 -9.98254,18.67801 -11.24271,19.63596 -0.31364,0.2384 -1.05357,-3.6593 -1.52011,-7.89279 z"
       id="path38" /><path
       style="display:inline;fill:#f1b382;fill-opacity:1;stroke-width:1.92377"
       d="m 202.94501,1174.8019 c -3.39623,-4.288 -13.08328,-15.3075 -23.79545,-23.9475 C 128.071,1109.6564 90.091306,1061.2237 55.845572,993.61378 31.86398,946.26793 16.209396,904.13714 4.7524605,856.10815 -6.2109333,810.14814 -9.0012797,790.53502 -10.057646,752.00904 -12.077617,678.34007 -2.5255013,618.7771 25.718276,528.92547 49.93275,451.89222 57.7934,409.32337 60.019854,343.16748 l -0.859397,-47.89141 47.984913,2.9345 c 61.66697,3.77122 97.00475,-11.37796 142.79224,-27.55192 41.27722,-14.58075 64.6731,-30.36084 157.44421,-87.42462 145.03339,-89.21045 200.51593,-116.531848 280.7374,-125.441636 54.88629,-6.095942 152.31906,7.155494 206.09904,24.330421 68.31262,21.816005 135.52504,57.140855 186.17974,101.285325 25.5315,22.25025 31.449,28.981 43.4234,196.48794 2.6679,37.32034 3.8589,97.40371 3.869,114.57414 0.038,64.3654 4.0436,135.20476 14.8867,317.05572 4.1132,68.98302 5.4089,100.11644 0.6727,107.77972 -2.0549,3.32494 -8.4512,17.31547 -10.5473,26.8123 -10.1685,46.07007 -28.4699,97.28444 -53.16,153.39274 -9.3879,21.3338 -27.5041,56.2682 -31.2958,59.415 -3.637,3.0184 -14.3533,-8.535 -16.8514,-30.9378 -5.5823,-50.0625 -23.5084,-84.2373 -49.86439,-102.725 -15.64669,-10.9755 -41.98782,-22.7021 -98.50488,-41.40748 -26.98087,-8.92985 -52.91278,-14.29378 -54.74538,-18.58986 l -10.46223,-2.70733 13.29042,-15.16145 c 21.601,-24.642 21.43543,-66.28808 7.78227,-96.90509 -2.40464,-5.39235 -11.87272,-19.75979 -21.0402,-31.92764 -27.59065,-36.62067 -41.90784,-70.15603 -55.84921,-130.81634 -6.92157,-30.11656 -12.66633,-70.92859 -12.72558,-90.40539 -0.0177,-5.82589 1.01659,-22.47848 2.29848,-37.00577 2.09431,-23.73418 2.00561,-27.09495 -0.87445,-33.13451 -6.43035,-13.48459 -19.26625,-11.0859 -27.10507,5.06523 -17.14352,35.32247 -13.81298,110.19174 8.58528,192.99395 13.96719,51.63408 29.1058,84.00629 53.5283,114.4643 18.20506,22.70405 22.20621,31.18229 22.24332,47.13236 0.0406,17.46237 -5.0083,27.9225 -22.22748,46.04982 -23.28216,24.51006 -53.5348,40.80465 -85.53479,41.09652 -21.82621,0.19907 -34.92733,-4.46321 -65.13379,-21.58487 -26.89534,-15.24484 -40.05164,-19.52149 -67.17111,-21.61628 -16.07229,-1.24147 -24.77695,-3.66959 -28.7834,-6.65578 -8.48453,-6.32395 -12.23648,-14.63939 -12.17936,-26.99324 0.0548,-11.85821 -1.57738,-22.46071 -5.59769,-22.46071 -1.34397,0 -4.49497,2.11978 -7.58524,7.12437 -11.62056,18.81912 -11.87227,39.41406 -6.04044,59.36544 1.77377,6.06829 2.90097,10.9235 2.38775,11.43675 -0.51324,0.51322 -30.54587,8.24219 -66.73917,17.17549 -70.06189,17.29279 -106.4217,28.47168 -133.90735,41.17011 -44.0075,20.3315 -64.3818,37.1546 -77.61674,64.0883 -11.82734,24.0691 -15.62403,41.4132 -16.81258,76.8034 -0.55968,16.6646 1.04365,33.1277 0.214,33.1277 -0.82964,0 -8.88338,-5.8949 -12.27958,-10.183 z M 394.65536,656.62025 c 10.07786,-5.03314 20.58331,-18.23074 24.51332,-27.63659 5.94264,-14.22272 7.38958,-24.40867 4.17736,-36.94713 -1.66271,-6.49019 -2.93473,-15.47785 -2.93473,-15.92143 0,-2.26891 9.31767,-1.55467 17.36722,2.52434 10.47826,5.30974 34.50696,25.94143 34.50696,28.30736 0,1.53684 23.64932,21.16404 25.50109,21.16404 0.49964,0 3.1904,-3.29289 5.97948,-7.31754 10.43389,-15.05611 5.46539,-28.48447 -20.1493,-54.45738 -30.16257,-30.58444 -66.41567,-45.91338 -108.65486,-45.9427 -31.31969,-0.0218 -59.87241,9.26345 -90.29654,29.364 -29.95866,19.79301 -54.77487,48.51313 -54.77487,63.39164 0,8.39404 2.77627,14.9645 6.31993,14.9571 1.28537,-0.003 8.82976,-4.3822 16.76531,-9.73226 16.07494,-10.83756 46.42749,-26.81448 50.94146,-26.81448 2.25997,0 2.95795,2.51234 3.07319,11.06167 0.39089,29.00028 19.07529,52.4079 46.44946,58.19142 12.52878,2.64705 31.35571,0.73215 41.21552,-4.19206 z m 642.12144,-24.51254 c 5.0504,-5.58059 6.1884,-18.70205 2.2554,-26.0051 -5.4106,-10.047 -32.6625,-25.80033 -60.26783,-34.83872 -26.76012,-8.76166 -81.46886,-9.28392 -112.67535,-1.07564 -28.66325,7.53931 -55.00416,24.23052 -60.97052,38.63461 -1.32627,3.20186 -3.17207,5.82159 -4.10177,5.82159 -0.9297,0 -1.69037,1.20886 -1.69037,2.68638 0,4.24527 13.09292,14.62755 18.44658,14.62755 2.66548,0 13.67298,-4.31257 24.46112,-9.58349 27.03016,-13.2065 51.21643,-18.0893 83.09922,-16.77633 27.01063,1.11233 44.39291,5.64107 78.12442,20.35441 24.5597,10.71265 28.5304,11.44614 33.3191,6.15474 z m 54.7198,-105.76589 c 1.9454,-1.23233 2.4319,-4.98583 1.8437,-14.2245 -0.6294,-9.88339 -2.5322,-16.04769 -8.9541,-29.0077 -17.5697,-35.45712 -52.4585,-59.4537 -106.01867,-72.91988 -24.82224,-6.24085 -69.3654,-5.63199 -101.1285,1.38227 -71.04095,15.68803 -89.37403,28.10404 -89.83824,60.84249 -0.20346,14.3499 3.38372,20.13373 14.32514,23.09735 7.36335,1.99445 11.35419,1.42584 39.92336,-5.68833 39.43194,-9.81917 65.66286,-13.60979 94.49367,-13.65525 47.6755,-0.0752 92.73224,13.77668 126.01334,38.7404 18.1566,13.61909 22.9442,15.48467 29.3403,11.43315 z M 187.0593,502.16013 c 31.78042,-19.77752 71.56104,-36.89831 107.32527,-46.19063 32.44072,-8.42881 60.74663,-11.19469 101.91201,-9.95821 40.95063,1.23002 60.61351,4.00714 100.54856,14.20114 l 27.44531,7.00581 5.00109,-3.73384 c 6.85506,-5.11806 19.45768,-26.46546 23.18335,-39.26999 1.68953,-5.80667 4.0111,-12.0615 5.15901,-13.89963 1.59498,-2.55395 1.38625,-3.92031 -0.88514,-5.79445 -1.63475,-1.34885 -4.41354,-4.78263 -6.17509,-7.63061 -6.17055,-9.97625 -33.78746,-20.07731 -76.36441,-27.93081 -14.58066,-2.68947 -29.16681,-3.3783 -72.14137,-3.40684 -59.44377,-0.0395 -75.99481,1.88927 -109.65488,12.77866 -55.33301,17.90079 -103.7057,57.46013 -127.17796,104.00653 -7.29396,14.46419 -8.00327,19.75294 -3.34022,24.90555 4.85347,5.36303 10.07354,4.30869 25.16447,-5.08268 z"
       id="path36"
       transform="scale(0.26458333)" /><path
       style="fill:#fdfef6;fill-opacity:1;stroke-width:0.415433"
       d="m 168.42174,325.8284 c -18.5604,-2.47066 -28.49412,-4.80611 -38.49662,-9.05065 -7.90236,-3.35336 -14.18316,-7.32304 -21.15328,-13.36955 -5.36533,-4.65438 -8.35008,-8.26916 -8.40038,-10.17353 -0.031,-1.17348 0.0936,-1.45303 0.56167,-1.26028 0.33081,0.13625 0.73448,0.0168 0.89703,-0.26548 0.22286,-0.38701 1.47022,-0.25259 5.07236,0.54659 8.95825,1.98754 26.80916,4.50621 41.6694,5.87932 8.31264,0.76809 28.04802,1.18176 38.89761,0.81529 11.49795,-0.38835 15.69609,-0.88078 29.1348,-3.41723 4.99648,-0.94308 9.68826,-1.71585 10.42617,-1.71731 0.73792,0 1.86478,-0.29544 2.50411,-0.65326 1.30601,-0.731 1.78081,-0.61015 0.8523,0.21691 -0.33617,0.2994 -0.61121,1.03627 -0.61121,1.63742 0,1.7252 -2.38412,5.72601 -9.05516,15.19545 -3.80234,5.39739 -5.89954,7.33422 -9.49773,8.77162 -4.03994,1.61384 -12.38655,3.85659 -18.3397,4.92793 -7.40385,1.33243 -20.90413,2.3903 -24.46137,1.91676 z"
       id="path83" /><path
       style="display:inline;fill:#809942;fill-opacity:1;stroke-width:0.389479"
       d="M 3.7928226,48.795877 C 2.6624131,44.219611 0.12276625,20.325839 -0.54319804,8.0012682 -1.9176123,-17.43412 1.6873269,-43.82547 9.2016841,-63.339914 11.893951,-70.3316 17.766482,-82.013856 21.3635,-87.533462 25.294929,-93.566224 32.83199,-102.19121 38.614343,-106.12 c 10.629903,-7.22245 35.126502,-17.12086 58.590123,-24.1188 16.114134,-4.80599 24.637684,-4.90078 39.363714,-4.89471 11.80364,0.005 21.68561,1.02899 34.58116,3.58381 17.98823,3.56378 32.8361,8.96662 54.778,19.93263 24.83736,12.413078 42.37674,26.416145 52.44348,41.869782 5.2652,8.082658 10.57772,20.444121 15.24616,35.475618 1.4106,4.541881 3.14452,9.983293 3.85315,12.092026 l 1.28842,3.834058 -1.02206,-0.02268 c -0.56213,-0.01247 -2.1504,-0.342777 -3.5295,-0.734019 -13.08472,-3.712079 -26.716,-6.555908 -39.15471,-8.168653 -8.32829,-1.079808 -6.81543,1.819263 -26.50049,1.818361 -18.3269,-8.34e-4 -21.44121,-0.20089 -28.84246,0.625108 -11.56778,1.290987 -28.84524,5.583689 -25.14238,4.830146 3.63334,-0.739396 -22.93636,4.472589 -15.9468,2.929324 l -9.7403,2.336102 C 116.69402,-7.0124761 100.72678,1.771529 77.069043,13.009517 53.423099,24.241901 22.859103,36.747144 6.8821875,49.17278 c -0.9179668,0.713925 -1.8955148,1.298046 -2.1723282,1.298046 -0.2768136,0 -0.68948,-0.75373 -0.9170367,-1.674949 z"
       id="path63" /><path
       style="fill:#f1b382;fill-opacity:1;stroke-width:0.193811"
       d="m -28.012734,267.89333 c -3.292473,-0.43764 -8.677704,-2.08665 -11.619646,-3.55804 -5.364246,-2.68287 -10.379661,-7.14157 -16.455821,-14.62924 -11.438721,-14.09596 -20.956184,-33.36875 -26.057924,-52.76711 -1.36621,-5.19474 -2.006187,-9.69984 -2.330851,-16.40788 -0.296081,-6.11753 0.04803,-11.04616 1.072984,-15.36795 3.904732,-16.46462 15.245895,-27.71789 27.209155,-26.99828 7.213738,0.43391 13.703524,3.43635 19.689594,9.10917 7.165466,6.79052 11.843635,15.48819 14.904614,27.71073 2.353393,9.39715 3.464862,18.61453 4.307714,35.72373 0.658728,13.37165 0.784816,19.29364 0.774558,36.37873 l -0.01045,17.40953 -1.356343,1.27701 c -1.801759,1.6964 -3.076606,2.14005 -6.421627,2.2348 -1.287333,0.0364 -2.955012,-0.0155 -3.705954,-0.1152 z m -8.874786,-39.36956 c 0,-0.0521 -0.614074,-1.1105 -1.364615,-2.35202 -1.655823,-2.73904 -2.979992,-5.78357 -3.416998,-7.85636 -0.812142,-3.85212 0.722155,-10.16849 3.274556,-13.48065 1.387849,-1.80096 4.292363,-3.9479 5.340961,-3.9479 0.788679,0 0.913274,-0.59119 0.789498,-3.74607 -0.329657,-8.40253 -3.920061,-19.33207 -8.662648,-26.36996 -3.651963,-5.41943 -8.323666,-8.22443 -14.212095,-8.53328 -5.616849,-0.29461 -9.931312,2.25116 -12.5464,7.40309 -1.002211,1.97443 -1.235334,3.35163 -1.263208,7.46251 -0.03423,5.04981 0.148724,5.48855 2.288934,5.48855 h 1.071564 l 0.124592,-1.10735 c 0.495786,-4.40632 1.842384,-7.88613 3.628925,-9.37765 0.364753,-0.30452 1.145934,-0.77814 1.735958,-1.05249 0.99476,-0.46254 1.264273,-0.49787 3.705955,-0.48587 2.9062,0.0143 3.609693,0.18494 5.219735,1.26635 1.488507,0.99977 4.548411,4.1699 5.756521,5.96386 1.859489,2.76123 3.577476,6.77065 4.529365,10.57057 1.238891,4.94561 0.770403,6.6834 -2.82709,10.48669 -2.233183,2.36093 -2.932296,3.4642 -3.872489,6.11112 -1.88296,5.30109 -1.526485,11.34757 0.937346,15.89925 1.778518,3.28563 5.473511,6.86761 7.811131,7.57222 0.555056,0.1673 1.950502,0.22839 1.950502,0.0854 z"
       id="path84" /><path
       style="fill:#607637;fill-opacity:1;stroke-width:0.853244"
       d="m -57.535427,103.62862 c 0,-0.43035 -0.570775,-4.976374 -1.268387,-10.102291 -5.232779,-38.449432 -4.737422,-63.09088 1.818991,-90.4856461 7.476698,-31.2400089 24.099614,-56.3089629 53.3001503,-80.3817529 9.762584,-8.048231 24.7183787,-19.137604 24.7183787,-18.328103 0,0.21466 0.587779,3.638744 -1.119172,6.315552 C 5.6484235,-66.98177 -2.7637425,-32.259888 -0.2540601,10.810266 0.54832602,24.580492 2.5331748,44.587377 3.8440866,52.118776 4.2625767,54.523071 3.6597705,55.16749 -6.7942614,63.491567 -12.889349,68.344805 -26.573901,79.53711 -37.204376,88.36335 c -10.630475,8.826232 -19.553791,16.0477 -19.829593,16.0477 -0.275802,0 -0.501458,-0.35209 -0.501458,-0.78243 z"
       id="path70" /><path
       style="display:inline;fill:#809942;fill-opacity:1;stroke-width:2.82843"
       d="M 25.049625,258.42552 C 13.575492,256.2527 -9.9355792,241.19778 -11.30831,239.82506 c -2.641686,-2.6417 53.960343,-42.54667 105.03118,-76.4478 179.49917,-119.152599 405.21119,-196.144664 595.6639,-224.112196 85.08132,-12.493989 169.74516,-15.006928 243.14562,-7.216895 88.01161,9.340725 223.86931,45.231178 299.81441,80.250874 111.0798,51.220942 181.2474,134.344647 181.1188,194.341407 -0.039,18.16345 -10.483,34.16084 -13.8067,34.16084 -1.128,0 -10.8969,3.18482 -19.9215,-13.34299 -21.8481,-40.01314 -53.3261,-81.11265 -107.6523,-117.93872 C 1220.28,74.402545 1153.6411,49.526044 1085.4329,32.006619 1020.5472,15.340582 930.65412,-1.3367529 873.27687,1.7917441 752.06002,8.4010971 678.73828,19.988469 538.51191,90.13431 c -43.20115,21.61064 -77.03253,30.2744 -160.91689,82.70371 -78.41458,49.01062 -131.76876,64.34138 -189.50462,77.93154 -31.91767,7.51299 -131.651049,13.60018 -163.040775,7.65596 z"
       id="path66"
       transform="matrix(0.26458333,0,0,0.283,-1.220881e-7,-2.1064642)" /><path
       style="display:inline;fill:#73583a;fill-opacity:1;stroke-width:1.92377"
       d="m 575.20717,1701.7156 c -49.05915,-8.619 -94.71384,-23.2464 -129.07974,-39.6033 C 368.7214,1625.2699 268.48431,1549.2946 154.80541,1442.3029 84.612683,1376.2393 47.005466,1328.4463 17.443954,1270.0979 c -27.933292,-55.1347 -34.884333,-87.1918 -46.829516,-191.6274 -7.168396,-62.6726 -7.250646,-80.55154 -10.088787,-208.67176 -1.558669,-70.36188 -5.357828,-136.33159 -6.498031,-146.38329 -6.688553,-58.96431 -25.054616,-111.42259 -53.459295,-153.88805 -21.256615,-31.77899 -31.576715,-43.45117 -70.784135,-63.09731 -20.56201,-10.30325 -34.78132,-5.66335 -31.79088,-45.26624 l 3.23666,-42.86347 6.15509,-9.43916 c 10.13081,-15.53616 99.731685,-87.89939 124.484912,-108.42322 9.810006,-8.13384 23.753135,-19.05441 26.447463,-19.73064 2.859968,-0.71781 16.836201,1.34286 24.902435,3.71142 17.22533626,5.05801 47.169001,10.38048 64.319159,12.55865 7.230354,0.9183 12.544544,1.29073 12.961598,1.70778 0.417035,0.41705 3.87079,25.89763 2.812601,46.46551 -3.326948,64.66545 -4.023894,90.37924 -29.714397,176.11479 -12.581321,41.98695 -28.6655277,94.47747 -34.41533498,128.51636 -4.08077202,24.1582 -8.40933192,114.65144 -5.47969992,143.2851 2.486244,24.3001 13.9724525,69.62054 23.6149179,101.52888 23.279154,77.03419 61.53976,151.16035 108.952426,205.68445 22.51375,25.8905 76.11609,65.925 85.06428,80.425 0.70385,1.1406 1.24565,0.8289 1.24565,-24.403 0,-34.4756 5.16721,-46.6981 9.25477,-59.7149 9.89212,-31.5014 20.21441,-47.5863 42.20552,-62.5202 14.30531,-9.7145 55.15031,-31.7466 77.83475,-39.7257 24.66297,-8.67498 160.34852,-42.099 169.54991,-42.16464 4.23229,-0.0302 18.04611,5.42244 24.39455,6.53832 6.34844,1.11586 20.57829,3.47228 29.41972,4.55571 14.22243,1.7428 20.39508,3.20468 50.83828,17.78111 57.15914,27.3682 50.79054,27.8447 86.67131,27.87 30.32627,0.021 35.98993,-3.5835 51.42236,-9.79072 17.81718,-7.1662 32.24819,-19.71307 49.45343,-29.57613 l 14.9358,-8.56209 44.30518,14.83483 c 54.74347,18.32991 95.12726,32.58801 111.65485,41.21131 26.1931,13.6663 44.37,36.9614 51.9593,65.4229 4.4147,16.556 12.4692,58.1758 12.4692,66.5863 0,4.2136 0.8965,5.468 3.908,5.468 2.1493,0 3.5492,-1.0231 5.1485,-2.1791 1.8699,-1.3516 2.8634,-2.6799 6.2218,-6.6531 20.458,-24.2035 53.1063,-113.951 70.4149,-182.48987 9.0776,-35.94547 19.9065,-47.22146 21.5984,-46.85232 2.2384,0.48838 4.5666,14.33656 6.8866,37.01269 3.3713,32.95216 11.2036,69.0884 11.2534,118.29 0.06,59.8917 -4.6176,70.7421 -9.7939,95.7277 -15.5839,75.2233 -35.0181,126.4395 -91.1943,222.9559 -61.1721,105.0998 -115.79799,187.1434 -153.60857,223.0598 -50.51623,47.9855 -122.65225,80.3289 -197.37501,87.8705 -33.88685,3.4201 -112.57074,4.7846 -137.20265,0.457 z m -43.92523,-281.5643 c 15.91585,-4.1455 22.5849,-8.6936 37.79109,-22.7722 15.51474,-14.3643 18.19137,-21.0262 18.19137,-29.8196 0,-5.5805 -4.23178,-10.9466 -18.38346,-24.5058 -15.81989,-15.1577 -15.95071,-23.3258 -8.92294,-21.2319 1.85163,0.5517 18.97422,3.6006 31.23995,5.4529 19.54752,2.952 26.33537,7.7565 65.76944,7.7162 45.30907,-0.046 61.56884,-5.5456 93.90345,-13.4206 20.63728,-5.0261 22.59897,-3.4635 22.59897,-0.8956 0,1.3502 -1.45813,9.079 -6.21947,14.8834 -7.97027,9.7164 -12.68025,11.9069 -12.68025,21.8131 0,9.3327 1.93827,9.9412 7.67839,17.3068 8.38652,10.7615 16.47233,19.4576 30.65969,25.9528 10.13442,4.6397 13.77456,7.4785 31.68975,6.7966 24.37101,-0.9277 33.38993,-5.0289 50.2556,-22.1454 34.35374,-34.8649 54.65439,-81.6946 65.83128,-154.5956 4.95829,-32.3403 8.12175,-104.4581 4.79404,-127.2165 -2.153,-14.7245 -13.44099,-13.1239 -6.28986,-23.716 7.76994,-11.5086 10.35165,-12.4101 -1.47176,-12.4101 -3.37582,0 -20.61341,5.8231 -37.44151,10.9957 -46.38588,14.2579 -85.18259,22.2852 -155.97435,31.3169 -25.01199,3.191 -149.53179,2.1836 -184.86907,-1.0252 -53.07238,-4.8185 -173.82694,-22.8039 -197.04097,-30.8914 -4.45959,-1.5537 -15.8117,-2.0862 -17.71883,-2.1016 -5.55196,-0.045 -20.52414,12.6564 -27.61589,21.4811 -10.08684,12.5518 -16.95818,25.4195 -16.95818,33.732 0,8.041 4.97255,9.7618 11.24036,9.7618 6.40897,0 5.98388,13.8752 14.20109,46.138 26.03209,102.2088 60.77579,168.6029 108.35592,205.8822 35.58308,27.8795 57.06553,31.6703 90.69864,29.8925 z"
       id="path33"
       transform="scale(0.26458333)" /><path
       style="display:inline;fill:#f1b382;fill-opacity:1;stroke-width:0.533752"
       d="m 132.86556,377.02298 c -0.8371,-0.088 -3.24242,-0.42398 -4.81694,-0.75853 -3.92209,-0.83332 -8.65435,-3.3936 -13.24232,-7.23244 -14.39671,-12.04592 -23.915925,-31.349 -30.863086,-61.86066 -1.255974,-5.51618 -1.404774,-8.26865 -1.157007,-10.59865 0.457147,-4.29903 4.868312,-10.64429 6.387448,-10.64429 0.235466,0 1.379079,2.07931 2.938109,4.41233 11.799796,17.65791 30.956366,31.04394 52.570416,37.04543 11.55431,3.20822 14.05734,3.88643 28.7826,3.89329 11.90411,0.005 16.45211,-0.75072 22.40417,-1.87217 12.22089,-2.30263 19.70125,-5.45158 26.60899,-11.15838 5.3518,-4.42136 6.71246,-9.44771 11.6855,-19.87886 3.13804,-6.58215 6.92181,-11.3738 12.01006,-12.82445 l 3.86724,-1.79816 1.17305,2.01077 c 1.12622,1.93049 0.8036,23.00331 -0.0376,29.95754 -2.87171,23.73952 -8.81315,40.79071 -18.62943,51.1491 -2.5516,2.69249 -5.13974,4.51101 -7.38795,5.39275 -7.4393,2.91762 -19.32864,-2.08407 -23.46135,-6.70484 -3.00792,-3.36313 -2.88283,-8.5917 -0.178,-11.67739 3.36064,-3.83381 4.20288,-3.01085 2.01664,-4.51718 -1.23606,-0.85166 -0.11435,-0.67815 -5.14185,0.68839 -15.8095,4.29723 -27.28033,4.82834 -43.90193,1.33342 -6.0005,-1.26168 -6.35177,-1.69 -6.93055,-1.55392 -0.37372,0.31545 -0.77785,0.56972 -0.29034,0.98916 1.38665,0.97608 1.65694,3.12992 4.71974,5.56803 1.89358,1.50737 3.51796,4.60254 3.54366,5.332 0.0682,1.93562 -1.6118,7.08843 -6.58187,10.6842 -3.81598,2.76081 -12.87596,4.96099 -14.35192,4.80588 z"
       id="path35" /><path
       style="display:inline;fill:#304734;fill-opacity:1;stroke-width:0.340078"
       d="m 600.42501,1251.4614 c -59.32052,-7.8673 -126.88268,-30.7428 -186.57373,-80.6552 -7.17098,-5.9962 -15.12256,-13.1006 -23.39547,-21.3801 -15.07834,-15.0904 -26.0482,-27.8131 -35.10826,-41.0983 -1.65825,-2.4315 -3.89374,-5.3942 -5.31151,-7.233 -4.54072,-5.8893 -3.89261,-5.8461 -5.88518,-7.952 -2.28186,-2.4118 -1.40136,-2.2812 -3.40165,-2.2812 -2.1876,-0.2987 -3.83863,1.3816 -5.38131,2.8905 -1.44975,1.6939 -3.39187,3.5471 -4.46859,4.8057 -5.41184,6.3259 -10.70214,14.2492 -13.28747,23.7613 -1.62941,5.995 -1.68765,11.4112 -2.39414,14.7509 -0.52314,2.4729 -1.3666,4.4394 -1.94852,5.131 -0.77923,0.9261 -2.10655,1.7348 -4.51953,1.7348 -4.84045,0 -7.91362,-0.4856 -10.04689,-4.802 -1.13725,-2.301 -2.39497,-4.3405 -2.35465,-6.4977 0.0596,-3.1883 1.06917,-9.3929 4.65922,-16.4533 4.91699,-9.6699 12.30277,-19.0564 19.53378,-26.064 6.98339,-6.7676 12.89355,-14.5903 24.08624,-16.3683 l 6.33281,-1.006 17.34396,4.0642 c 19.46949,4.5623 35.96525,6.944 51.5668,9.7811 2.05747,0.3742 6.69173,1.6299 11.3678,2.485 19.75507,3.6125 41.13161,6.6188 67.51553,10.4013 9.72622,1.3944 21.53216,2.816 25.62429,3.4648 14.62644,2.3188 34.77559,4.1726 64.30145,5.3999 4.67607,0.1943 12.96568,1.007 16.89357,1.1948 26.93785,1.2879 82.94207,1.1573 110.23575,-0.136 13.65936,-0.6471 21.8175,-1.1605 40.24862,-3.4251 58.46347,-7.1831 99.52678,-15.2012 135.34634,-25.8985 2.80564,-0.8379 14.36274,-4.6815 22.77966,-7.472 21.4402,-7.108 26.99007,-7.8068 30.15224,-6.408 2.69192,1.1907 3.43603,5.0821 0.38329,9.4504 -3.56983,5.1083 -7.02376,10.307 -14.78749,15.1243 -4.90236,3.0418 -11.60164,6.402 -16.30416,10.227 -4.52035,3.6768 -12.3157,11.1053 -14.79164,14.4322 -1.81339,2.4367 -7.17827,9.6577 -8.52596,12.3051 -0.35069,0.6889 -2.91229,4.9201 -4.05974,7.0368 -1.14746,2.1167 -2.45116,6.7107 -4.68255,11.1998 -6.2746,12.6231 -10.72989,19.6323 -16.71321,28.4415 -24.82557,36.5506 -57.97421,58.1853 -110.63783,70.5785 -19.21051,4.5207 -40.32599,7.6883 -65.5201,9.382 -9.38074,0.6306 -26.1064,5.3324 -41.14677,3.3377 z m 93.11623,-28.24 c 14.64317,-0.9272 24.30402,-2.4384 36.17522,-4.4786 29.96682,-5.1499 59.45865,-13.2496 73.56593,-20.5094 10.16478,-5.231 21.32736,-21.9302 32.19393,-36.4003 11.46844,-15.2714 22.27913,-30.8582 23.25781,-37.5792 0.28686,-4.0126 1.08656,-7.8272 -1.5723,-7.9872 -7.92175,-0.4766 -17.16772,2.2533 -27.89106,4.6784 -20.22824,4.5747 -61.93235,11.2945 -83.8104,13.0988 -44.88668,3.7018 -120.94476,2.8274 -170.52872,-0.875 -44.23972,-3.3022 -132.77076,-14.8327 -151.3548,-19.7969 -6.54257,-1.7619 -14.48005,-2.972 -20.99621,-1.5322 -0.98539,0.083 -3.87862,3.7021 -3.54714,6.2872 0.21705,1.6927 2.36899,5.3503 4.63619,7.9494 11.34857,13.0099 25.34738,25.2016 39.72632,35.7802 45.60865,33.5542 103.00184,52.4284 180.44952,60.9618 9.01987,0.9939 8.68759,2.9135 36.75534,2.8061 18.62738,-0.071 19.34773,-1.8371 25.51575,-2.2276 z"
       id="path41"
       transform="scale(0.26458333)" /><path
       style="fill:#304734;fill-opacity:1;stroke-width:2"
       d="m 624,1736.8712 c -27.45526,-2.1834 -74.08618,-8.8708 -98.64616,-14.1468 C 439.86456,1704.3594 350.8359,1652.6462 228,1550.0038 86.93514,1432.129 15.61422,1347.9131 -23.52686,1253 c -16.9207,-41.0309 -24.8448,-76.5204 -32.54438,-145.7559 -2.85982,-25.7157 -6.26554,-50.0157 -7.56826,-54 l -2.3686,-7.2441 -25.99596,-1.4602 c -29.17244,-1.6387 -37.0849,-3.2105 -59.31412,-11.783 C -192.0937,1017.0321 -233.2399,977.50264 -271.80939,917 c -5.25924,-8.25 -17.98842,-32.1 -28.28705,-53 -54.72955,-111.06786 -65.70064,-208.44628 -31.82259,-282.45446 18.71172,-40.87666 48.9217,-70.0288 84.4458,-81.48886 5.78972,-1.86776 11.86472,-4.73388 13.5,-6.36916 4.29991,-4.2999 3.7782,-13.31144 -3.95777,-68.36372 C -250.82276,333.58092 -254.7806,294.6592 -259.21656,216 -264.78663,117.23054 -249.70713,4.79038 -221.03709,-68.68482 -176.94398,-181.68606 -72.3721,-301.54584 58,-388.51576 c 80.82582,-53.9181 162.38074,-90.46975 273.74874,-122.68992 15.2618,-4.41543 29.85244,-9.40646 32.42364,-11.09118 2.61654,-1.71442 6.52146,-8.04734 8.86874,-14.38313 2.30662,-6.226 6.3619,-14.63176 9.01172,-18.67946 13.81166,-21.09769 53.2432,-34.23591 89.21462,-29.72547 25.53856,3.20226 40.58662,12.44504 56.73254,34.84612 3.78522,5.25167 5.1813,5.64632 26,7.34981 113.12108,9.25613 207.2395,36.51521 314,90.94237 88.08014,44.9038 156.3334,96.47974 193.9349,146.54796 26.1874,34.86974 42.2268,69.15114 66.1569,141.39866 9.1087,27.5 18.9398,60.68384 21.8471,73.74188 2.9072,13.05804 6.6017,25.75018 8.21,28.20476 3.4869,5.32158 9.6319,8.52926 34.8511,18.19224 37.7358,14.45882 95.046,46.37154 128.5226,71.56676 33.6239,25.30604 71.2989,63.12556 91.9418,92.29436 19.4957,27.54772 29.5356,57.7671 29.5356,88.89972 0,31.00984 -7.3189,52.01222 -24.9646,71.6385 -18.5881,20.67436 -50.959,38.10672 -88.3976,47.6038 -23.1933,5.88346 -68.052,9.1532 -96.6378,7.04388 -23.3965,-1.7264 -27.402,-1.23712 -28.8983,3.53004 -0.567,1.80624 -1.9662,21.28406 -3.1094,43.28406 -1.1432,22 -3.4448,47.2 -5.1147,56 -4.9977,26.33734 -5.7344,37.79918 -2.5968,40.40314 1.5159,1.2581 10.2103,5.00784 19.3207,8.33274 36.6053,13.3593 59.1203,39.89128 70.6575,83.26412 5.3921,20.2708 7.424,82.72268 3.8541,118.4557 -5.8175,58.229 -24.6877,125.46154 -49.8147,177.4848 -15.9782,33.08132 -24.7404,46.98842 -39.968,63.43606 -13.3107,14.37712 -14.0232,18.52538 -9.3829,54.62344 4.5261,35.2096 6.2436,111.5536 3.245,144.2409 -6.999,76.2944 -26.7953,140.725 -66.599,216.7591 -24.5264,46.8509 -64.7445,114.5704 -104.0746,175.2416 -74.68652,115.2124 -142.91918,173.2072 -234.5189,199.331 -50.20888,14.3192 -113.91982,21.1224 -162,17.2986 z m 91,-38.7952 c 88.54262,-11.7162 152.95746,-44.848 209.56804,-107.7916 32.79662,-36.4656 88.91276,-121.2476 146.46516,-221.2844 50.8067,-88.3117 78.7517,-167.1111 86.176,-243 1.5327,-15.6661 1.8916,-39.626 1.0336,-69 -1.4127,-48.3627 -9.1015,-131.91148 -12.5446,-136.3131 -1.2575,-1.60758 -2.1743,-15.94296 -2.2822,-35.6869 -0.099,-18.15 -2.4525,-70.8 -5.2296,-117 -8.1415,-135.44136 -9.2277,-159.56626 -11.1657,-248 -2.1659,-98.82992 -12.188,-244.61358 -19.1252,-278.19868 -7.3117,-35.39784 -11.9037,-42.41146 -45.0741,-68.84306 C 1036.1097,151.67312 1012.6521,136.59258 980,119.71354 902.7996,79.80588 832.6016,62.9465 744.01226,63.03664 643.56412,63.13884 577.8311,87.52546 427,180.64658 c -104.61318,64.5868 -136.22526,81.6251 -178,95.93866 -51.57176,17.67038 -89.35906,23.31728 -156,23.31252 -53.4309,-0.004 -75.61258,-2.87488 -109.0958,-14.12078 -20.7,-6.95242 -24.79976,-5.90934 -44.84046,11.40848 -8.9545,7.73786 -34.00704,29.01286 -55.67232,47.27778 -63.79585,53.7831 -77.9109,66.54826 -80.50165,72.80288 -2.62202,6.3301 -1.67967,65.35352 1.1549,72.33712 0.80438,1.98178 9.83057,7.51364 20.05819,12.29304 34.16712,15.96638 54.25656,31.9823 73.29512,58.4331 20.3431,28.26324 36.5089,62.46998 46.35476,98.08642 15.44048,55.85442 17.22592,76.40116 19.255,221.5842 0.9224,66 2.69144,130.8 3.9312,144 3.73264,39.7423 13.93304,122.8745 17.27054,140.753 12.58784,67.4313 42.69504,129.5864 94.09096,194.247 34.97812,44.0056 148.22908,148.7442 224.69956,207.8104 48.8939,37.766 107.61244,75.6854 143,92.3472 45.3749,21.364 102.078,36.2326 159.33716,41.781 24.7401,2.3974 81.0129,0.9284 109.66284,-2.8626 z M -73.33792,1000.2503 -68,994.91574 -67.28782,941.45786 C -66.4779,880.66384 -69.82124,782.89984 -74.2799,737 c -8.28344,-85.27436 -28.6303,-138.7904 -66.2672,-174.29514 -21.36383,-20.15356 -41.17343,-29.69992 -67.81902,-32.68238 -46.50676,-5.20554 -90.45252,39.3313 -103.79804,105.19418 -5.32039,26.2572 -3.10509,75.40396 4.81329,106.78334 21.35713,84.63524 65.0299,168.27514 115.25177,220.72442 7.7545,8.09842 19.25147,18.2416 25.54882,22.54038 31.92584,21.7936 78.85122,29.3377 93.21236,14.9855 z M 1192.242,875.46938 c 8.2266,-5.39148 34.9902,-74.15062 46.502,-119.46938 10.9973,-43.29364 13.0901,-61.4014 13.1751,-114 0.086,-52.90362 -0.9908,-61.74104 -10.0307,-82.35638 -5.5003,-12.54358 -18.9283,-27.56234 -29.4353,-32.92262 -17.0969,-8.7222 -37.0943,-6.24952 -44.7975,5.5392 -3.3088,5.0636 -3.6152,9.989 -3.23,51.9214 0.5821,63.36362 5.6878,156.0471 11.4782,208.36426 2.6452,23.89978 5.3949,51.55414 6.1106,61.45414 0.7156,9.9 1.6519,19.125 2.0806,20.5 0.8643,2.7721 4.7,3.2285 8.147,0.96938 z M -160.48172,338.40244 C -140.41678,320.4738 -101.5,286.1575 -74,262.14402 -46.5,238.13054 -17.925,213.14236 -10.5,206.61472 5.1135,192.8882 4.69466,194.91726 -0.052,156 -8.31006,88.29308 -10.98268,45.7762 -10.98966,-18 c -0.0092,-83.75086 3.857,-125.73094 16.30082,-177 9.80106,-40.38082 26.90498,-82.75434 48.43756,-120 5.29726,-9.16288 7.02816,-22.66576 3.20808,-25.0267 -6.34784,-3.92318 -90.10374,65.03554 -133.95722,110.29098 -28.85724,29.77976 -44.38354,48.80646 -64.9115,79.54574 -39.4149,59.02126 -62.95123,123.83958 -75.95947,209.18998 -12.43973,81.62028 -11.70183,144.06082 3.14349,266 4.48654,36.85238 7.23033,46 13.79754,46 2.30142,0 19.28361,-13.68594 40.44864,-32.59756 z M 137,267.03606 c 46.53278,-3.43834 89.9399,-14.55502 136.17782,-34.8755 C 301.51058,219.70898 329.41564,204.00376 381,171.4773 453.2573,125.91552 474.3917,113.58312 517,92.11824 635.66362,32.3388 719.23562,3.71958 803,-5.82236 c 56.4097,-6.42586 79.35706,-7.4369 116.92412,-5.15158 112.58068,6.84862 196.89068,29.43238 295.11318,79.05068 91.7292,46.33814 149.6468,101.77706 167.0733,159.92326 4.406,14.70134 11.2862,22.9876 16.411,19.765 11.1412,-7.00584 16.0053,-37.93146 9.783,-62.19936 C 1389.9597,114.01822 1293.0564,30.87282 1170.971,-18.07254 978.28584,-95.32206 772.43394,-102.03102 541.04664,-38.60252 412.47244,-3.35742 285.8868,51.1692 167,122.5176 107.4813,158.237 1.48316,233.00332 -4.7145,243.63726 c -3.18654,5.4675 -3.12674,5.77492 1.98598,10.2075 C 10.40844,265.23416 76.6949,271.49204 137,267.03606 Z M 42.34538,167.5 c 4.371,-3.025 19.13144,-13.2739 32.80096,-22.77534 C 129.76226,106.76212 205.82716,62.57112 276,28.03588 c 93.64214,-46.08556 166.9427,-73.59642 271.92858,-102.0591 18.6607,-5.0591 35.0857,-10.1587 36.5,-11.33246 3.0748,-2.55186 3.3345,-17.82886 0.58894,-34.64432 -2.4266,-14.86204 -5.39004,-22.26098 -9.70064,-24.21998 -1.82428,-0.82906 -14.11688,-1.66538 -27.31688,-1.85848 -29.0695,-0.42524 -43.75744,-3.8419 -68,-15.8179 -30.80976,-15.22026 -54.0928,-39.95154 -70.84054,-75.24688 -9.6808,-20.40198 -15.21278,-41.10634 -18.4699,-69.1267 -2.0909,-17.9876 -2.02828,-21.29076 0.43308,-22.84818 3.71392,-2.34996 16.2396,-2.30108 39.55026,0.15434 46.30454,4.87748 81.98124,20.10956 115.8061,49.44314 7.13886,6.19094 13.95764,10.53726 15.93432,10.15658 2.28232,-0.43952 6.2678,-7.59908 11.74,-21.08982 11.6007,-28.59948 19.4376,-40.95472 37.84668,-59.6671 30.58404,-31.08788 73.55948,-49.84719 130.80674,-57.09874 23.1681,-2.93472 22.82752,-3.25581 26.25916,24.7577 6.07006,49.55178 -5.78574,108.51548 -30.16646,150.02996 -5.155,8.77772 -15.27944,21.13904 -25.84154,31.55086 -21.4156,21.11096 -42.37798,32.61144 -78.27512,42.94372 -13.55096,3.90038 -26.24566,8.5464 -28.21044,10.32452 -4.51322,4.0844 -4.69602,16.9562 -0.52518,36.9822 3.4029,16.33874 6.84476,20.4098 15.95284,18.86904 129.29036,-21.87106 238.53626,-26.47358 335.02818,-14.11464 30.01748,3.84472 94.74722,16.95778 118.11342,23.92762 17.7992,5.3093 43.8584,8.73868 43.8584,5.77176 0,-3.87004 -31.0479,-97.30548 -39.484,-118.82302 -9.5248,-24.29444 -25.3095,-57.06188 -34.1015,-70.79142 C 997.2828,-340.95336 911.68314,-400.71055 765,-461.54905 660.5182,-504.88407 523.09088,-521.64484 425.95424,-502.8994 377.99422,-493.64407 289.61848,-464.67618 225,-437.03041 131.26116,-396.92605 100.20218,-369.84534 62.10478,-295 45.24432,-261.87628 36.33942,-239.9734 28.11274,-211.39166 7.67592,-140.38862 -0.56426,-58.12718 4.73374,22 7.59174,65.22444 16.23922,141.86548 20.24588,159.48146 23.13374,172.17836 23.65724,173 28.85934,173 c 3.0463,0 9.11502,-2.475 13.48604,-5.5 z m 516.61264,-335.4494 c 1.96538,-2.36814 1.61774,-4.66406 -1.76386,-11.64952 -4.481,-9.2565 -35.87468,-45.85552 -45.46612,-53.0048 -8.39418,-6.25686 -7.05859,-13.94882 5.11985,-6.96474 6.44868,3.6982 20.86595,16.34546 26.50203,23.6031 10.10096,13.00716 13.33266,20.96536 19.57972,20.96536 3.6312,0 4.07036,-1.26574 4.07036,-11.73128 0,-24.64478 -25.83566,-60.05038 -56.10032,-76.88078 -29.5203,-16.41644 -64.26164,-27.3476 -86.99968,-27.37392 -13.7443,-0.0159 -16.9,2.06228 -16.9,11.12954 0,11.0933 9.45012,44.097 17.54322,61.26806 16.62368,35.2704 47.99768,62.23544 82.0021,70.47842 16.18026,3.92224 49.20682,4.0234 52.4127,0.16056 z m 84.55652,-9.98392 c 38.60488,-8.18072 79.16828,-45.37454 96.39536,-88.3878 9.29456,-23.20704 13.14072,-44.73792 14.45326,-80.9093 1.32682,-36.56548 0.59534,-42.58068 -5.57986,-45.88556 -8.12702,-4.34944 -62.8197,11.34612 -91.96118,26.39078 -36.87058,19.03488 -63.3464,50.6681 -72.8069,86.98936 -5.55894,21.34224 -1.94608,72.37072 5.4566,77.06976 5.2686,3.34438 7.41236,1.18914 15.34584,-15.4281 10.17816,-21.31884 20.5801,-36.70998 34.43572,-50.9526 12.28276,-12.6258 17.93727,-15.62503 19.23003,-14.33227 0.47978,0.47976 5.16675,0.26293 -3.62841,13.34599 -31.20902,46.42432 -49.49736,86.72404 -42.52166,93.69972 2.19792,2.19794 16.79292,1.44904 31.1812,-1.59998 z"
       id="path69"
       transform="scale(0.26458333)" /><path
       style="fill:#304734;fill-opacity:1;stroke-width:1.41421"
       d="m 350.23831,661.01592 c -14.5401,-3.10021 -30.39036,-15.17191 -37.17887,-31.02311 -9.28745,-21.68625 -12.3956,-46.93928 0.99848,-61.10155 11.61391,-12.28 45.10459,-27.45822 59.81669,-25.33586 15.31745,2.20969 41.62942,18.45354 46.61776,29.36002 2.44043,5.33576 5.30386,16.92857 5.33025,29.00923 0.0297,13.60323 -2.6145,26.69666 -6.42291,34.4534 -5.01361,10.21142 -21.82556,19.61731 -30.29249,23.36263 -7.16387,3.16892 -30.24759,3.11346 -38.86891,1.27524 z"
       id="path76"
       transform="scale(0.26458333)" /><path
       style="fill:#304734;fill-opacity:1;stroke-width:1.41421"
       d="m 229.22281,612.70802 c -1.85327,-22.23885 44.97298,-63.39746 81.74852,-78.90742 42.63181,-17.97982 95.12207,-25.98104 146.02987,6.93509 18.24934,11.79972 51.80916,50.1283 54.42237,60.54017 0.90763,3.61628 -7.35096,28.75628 -12.93261,28.04917 -0.61425,-0.0778 -16.69846,-10.09611 -24.06451,-16.81823 -13.74849,-12.5466 -27.24401,-25.58367 -36.56462,-30.3865 -2.90023,-1.49446 -12.14565,-5.19575 -17.4125,-6.38856 -6.90415,-1.56362 -4.60429,-9.949 -11.74161,-14.86477 -5.44472,-3.75 -12.57611,-8.17604 -15.84752,-9.83562 -7.91116,-4.01333 -22.01955,-5.88018 -33.5921,-4.44498 -18.63064,2.31051 -41.94722,17.38426 -48.1427,31.12337 -2.20608,4.89221 -0.29466,14.6564 -4.2249,14.6564 -5.64337,0 -35.71362,14.46841 -54.01901,26.11772 -7.38339,4.69869 -16.6186,10.48762 -17.11974,10.48762 -0.50115,0 -5.6047,-5.05262 -5.78763,-7.24785 z"
       id="path77"
       transform="scale(0.26458333)" /><path
       style="fill:#c28d61;fill-opacity:1;stroke-width:0.410838"
       d="m -38.576233,230.43208 c -1.827974,-0.88743 -4.751954,-3.63047 -6.386471,-5.99127 -3.367486,-4.86378 -5.408163,-11.55285 -3.330087,-17.36518 1.251184,-3.49953 1.691246,-6.25391 4.673433,-8.99124 3.570138,-3.27701 3.763979,-4.3067 1.496734,-10.82075 -1.975106,-5.67473 -2.068622,-9.06604 -5.561784,-12.36514 -3.5216,-3.32597 -4.967888,-3.95608 -9.08035,-3.95608 -4.328651,0 -5.850859,1.5672 -7.427857,5.50715 -0.482002,1.20423 -0.69057,3.23565 -1.2249,4.44578 l -0.0178,2.25627 -0.05214,0.44365 c -0.152765,1.29987 -4.025745,-0.25465 -4.373287,-1.50624 -0.212791,-0.76633 -0.313269,-3.18475 -0.223282,-5.37426 0.132935,-3.23453 0.370162,-4.40042 1.26524,-6.21823 1.531245,-3.10979 3.795335,-6.02688 6.805986,-7.36631 5.859093,-2.60669 14.4157,-0.45613 19.524094,4.60092 6.367478,6.30349 12.18034,21.70635 12.18034,31.74509 0,2.75517 -0.05247,2.9161 -0.953985,2.92552 -1.091189,0.0114 -3.958208,1.98061 -5.587351,3.83767 -2.614607,2.98038 -4.366321,8.91396 -3.938712,13.34162 0.226697,2.34734 1.870113,6.06565 4.323248,9.78156 l 1.116944,1.69189 -0.978019,-0.002 c -0.537907,-0.001 -1.550405,-0.28034 -2.249994,-0.61997 z"
       id="path78" /><path
       style="fill:#73583a;fill-opacity:1;stroke-width:0.389751"
       d="m 41.889822,135.45776 c -1.313478,-1.11011 -1.093653,-3.05144 0.778461,-6.87474 4.915242,-10.03809 13.142836,-18.49148 24.053601,-24.71372 4.884006,-2.78527 12.791592,-5.683457 18.838232,-6.904344 4.599899,-0.92877 18.445674,-1.404081 29.230454,-1.003449 10.15453,0.37722 14.84435,1.144885 22.50835,3.684336 5.24169,1.736837 7.70739,3.214507 9.50081,5.693787 l 1.50845,2.08533 -1.24092,3.57702 c -1.97507,5.69323 -5.26689,11.43672 -7.16137,12.49496 -0.58229,0.32526 -2.53369,-0.0333 -8.64187,-1.58797 -9.5865,-2.43997 -13.715,-3.10807 -22.71211,-3.67542 -11.281143,-0.71139 -21.072166,0.0393 -29.957226,2.29678 -8.508055,2.16172 -19.156703,6.61026 -26.656769,11.13604 -8.257211,4.98267 -8.520874,5.08216 -10.048093,3.79139 z"
       id="path79" /><path
       style="fill:#73583a;fill-opacity:1;stroke-width:0.386022"
       d="m 285.75562,139.92301 c -0.83744,-0.50367 -2.89258,-1.93187 -4.56701,-3.1738 -5.55186,-4.1178 -13.36698,-7.3907 -21.70381,-9.08933 -2.70127,-0.55039 -5.24617,-0.69428 -12.00177,-0.67859 -9.74915,0.0226 -12.52248,0.4123 -25.21942,3.5435 -8.00562,1.97427 -10.20455,2.09845 -12.06361,0.68127 -1.69239,-1.29013 -2.28516,1.3578 -2.52529,-6.85925 -0.15618,-5.34428 3.12745,-8.03646 8.16459,-10.64008 5.21993,-2.6981 16.55577,-5.77336 24.95679,-6.62325 5.4564,-0.552 15.22881,0.11835 19.31266,0.99427 4.24723,0.91095 10.63924,3.78435 14.8321,5.99627 7.42227,3.91555 10.37047,8.75893 13.72191,15.80343 1.90895,4.01243 2.02502,3.8669 2.02318,7.30698 l -0.73998,3.44665 -0.954,0.78801 c -0.6712,0.55443 -2.25649,-0.90679 -3.23629,-1.49608 z"
       id="path80" /><path
       style="fill:#304734;fill-opacity:1;stroke-width:1.41421"
       d="m 509.68443,952.55308 c -0.77079,-0.30162 -1.40624,-6.39589 -3.02162,-12.61446 -3.79869,-14.62349 -4.04056,-33.60163 -0.54775,-43.57723 1.36171,-3.88908 5.14131,-12.84394 7.48244,-16.53858 7.33718,-11.57907 12.66269,-7.00806 14.06934,13.30204 1.05992,15.3039 2.25736,22.89576 9.02553,28.01469 5.79567,4.38343 11.35746,6.13442 33.68272,8.71418 24.9585,2.88405 33.11403,5.94507 67.75105,23.6022 33.40254,17.02783 39.65124,19.26808 60.61668,19.04296 28.83829,-0.30967 56.69378,-12.72441 81.20132,-36.71157 20.21099,-19.78185 28.93181,-31.41276 28.06494,-51.68523 -0.62711,-14.66536 -5.53946,-20.01809 -22.85198,-42.80923 -25.64431,-33.75957 -37.77231,-58.06632 -51.64693,-106.00883 -7.50567,-25.93513 -15.0294,-61.62877 -18.70339,-87.98842 -3.57541,-25.65242 -3.88738,-73.10962 -0.36677,-89.42062 3.47378,-16.09398 7.55625,-27.99504 12.95921,-33.72386 3.9023,-4.13764 6.88064,-6.54419 11.44212,-6.16544 4.26934,0.3545 8.2641,1.92143 10.83569,5.75024 3.86683,5.75725 4.516,12.17952 2.05111,50.33267 -1.36179,21.07878 -1.34785,30.21607 0.068,44.54772 2.40654,24.36016 7.13955,54.12474 13.24287,78.98052 12.71856,51.79638 26.59137,80.92473 53.97759,119.81861 9.03675,12.83398 18.27356,29.1573 20.52623,33.89736 6.28437,13.22355 10.26149,26.71247 9.46959,44.94504 -0.8425,19.39799 -5.81032,40.13696 -9.98723,46.26428 -2.07994,3.05117 -5.62728,2.17998 -17.72504,17.82418 l -7.33403,6.20733 c -2.88479,2.44161 -9.63214,4.13881 -13.52123,6.36395 -3.88908,2.22512 -12.79863,8.00374 -19.79899,12.84136 -15.08008,10.42114 -26.2983,16.23286 -41.30447,21.39836 -10.20604,3.5131 -12.8001,3.8008 -35.06306,3.8889 -16.03273,0.063 -26.16163,-0.5273 -30.40559,-1.7732 -3.50018,-1.0276 -24.18305,-10.34573 -45.96194,-20.70703 -21.77889,-10.36133 -42.77996,-19.92483 -46.66905,-21.25224 -4.29666,-1.46653 -14.57095,-2.8343 -26.18586,-3.48602 -16.59123,-0.93094 -19.90804,-1.94221 -26.46948,-4.79945 -4.19977,-1.82883 -10.16777,-3.84365 -11.9819,-4.32352 -4.4223,-1.16978 -4.39349,-1.16296 -6.92012,-2.15166 z"
       id="path81"
       transform="scale(0.26458333)" /><path
       style="fill:#304734;fill-opacity:1;stroke-width:1.41421"
       d="m 1013.784,630.94685 c -25.75127,-10.7672 -41.98724,-15.83862 -52.35093,-18.49808 -24.2002,-6.21011 -55.90992,-7.27123 -80.34231,-2.26709 -10.37109,2.12416 -19.48623,5.34286 -50.70957,18.32056 -14.46965,6.01418 -23.7496,6.65899 -28.75943,-5.35851 l -2.41674,-5.79724 3.67937,-6.20312 c 1.21792,-2.05332 4.69166,-7.70739 5.92888,-10.15706 6.10982,-12.09725 35.44737,-26.4926 59.05675,-32.02558 33.74615,-7.90859 79.81092,-7.03846 109.01944,1.37734 23.35064,6.72797 55.58864,22.04936 62.12224,31.95862 3.643,5.52517 3.8046,21.52214 0.079,27.6319 -3.7302,6.1181 -9.7511,7.52256 -25.3071,1.01826 z"
       id="path82"
       transform="scale(0.26458333)" /><path
       style="display:inline;fill:#809942;fill-opacity:1;stroke-width:0.353553"
       d="m 619.16037,-181.78264 c -0.93163,-0.16054 -0.97227,-0.25458 -0.97227,-2.24968 0,-1.62177 0.18991,-2.36198 0.8589,-3.3478 0.4724,-0.69611 1.36615,-2.81124 1.98613,-4.70028 4.294,-13.08372 11.79283,-28.77023 21.67003,-45.3307 8.55886,-14.35008 14.43842,-23.39154 21.0089,-32.307 2.41876,-3.282 5.67771,-7.89587 7.24212,-10.25305 3.38757,-5.10422 7.3565,-13.04851 7.60051,-15.21331 0.15636,-1.38727 0.0468,-1.6705 -1.16443,-3.01123 -2.17171,-2.40382 -4.04704,-3.305 -7.26532,-3.4913 -2.60013,-0.15052 -2.92742,-0.0847 -5.34459,1.07519 -2.613,1.25383 -8.53224,5.6779 -14.94922,11.1731 -22.39403,19.17723 -38.92631,41.56823 -50.25494,68.06433 -2.60772,6.09908 -3.92378,8.58792 -5.69799,10.77556 l -1.24347,1.53322 -1.39455,-2.94743 c -2.54303,-5.37477 -2.74166,-6.70364 -3.13588,-20.97866 -0.61206,-22.16354 -0.44528,-27.6307 1.12705,-36.94633 2.73307,-16.19272 10.62103,-34.28246 21.34758,-48.95714 19.53682,-26.72778 48.58546,-45.24892 91.04777,-58.05121 13.07482,-3.94203 38.43374,-10.14007 41.32806,-10.1011 1.87385,0.0252 3.07167,0.83419 4.07929,2.75497 0.71605,1.36496 0.73089,1.82752 0.70835,22.07704 -0.0291,26.18749 -0.75924,37.69543 -3.36457,53.03301 -4.61239,27.15307 -13.82836,50.78639 -27.29837,70.00357 -16.16252,23.0585 -37.09745,40.63333 -58.75298,49.32301 -8.6635,3.47639 -15.1727,5.15089 -26.70335,6.86945 -7.82133,1.16571 -10.93715,1.46667 -12.46276,1.20377 z"
       id="path65"
       transform="scale(0.26458333)" /><path
       style="display:inline;fill:#809942;fill-opacity:1;stroke-width:0.353553"
       d="m 535.98694,-171.68649 c -21.03105,-0.92071 -33.23881,-3.69708 -48.08326,-10.93542 -11.76523,-5.73688 -22.42494,-13.69976 -33.4141,-24.96059 -5.83479,-5.97903 -9.21827,-10.08401 -13.52345,-16.40722 -11.82334,-17.36545 -19.86914,-38.51248 -25.85582,-67.95767 -1.38181,-6.79632 -1.605,-10.24414 -0.74282,-11.47507 0.78524,-1.12109 3.81491,-1.64164 7.92373,-1.36144 24.65,1.68102 50.17889,9.51142 78.3627,24.03594 14.19934,7.31764 23.34555,13.79676 32.69674,23.16219 11.94449,11.96268 19.85591,24.71604 26.66537,42.98508 3.19128,8.56186 3.22385,8.72819 2.19697,11.21812 l -0.838,2.03194 -2.26421,-1.12805 c -3.45562,-1.72162 -8.14097,-6.62707 -13.24765,-13.86997 -8.5444,-12.11869 -13.93914,-16.40791 -30.3823,-24.15624 -13.43223,-6.32952 -16.9937,-8.27417 -21.59941,-11.7938 -1.56164,-1.19339 -2.04536,-1.37587 -3.64717,-1.37587 -2.32078,0 -3.07867,0.4048 -3.74538,2.00048 -2.16663,5.18547 1.58828,9.75543 21.21379,25.81856 6.63458,5.43028 12.45644,11.27999 19.99185,20.08745 2.99465,3.50018 7.17936,8.27315 9.29935,10.6066 6.85849,7.54906 10.7484,12.95687 13.72736,19.08396 1.42595,2.93287 1.72848,3.83933 1.39344,4.17516 -0.54653,0.54781 -6.67244,0.6298 -16.12773,0.21586 z"
       id="path64"
       transform="scale(0.26458333)" /></g></svg>
